<svg width="30" height="31" xmlns="http://www.w3.org/2000/svg" xmlns:xlink="http://www.w3.org/1999/xlink" xml:space="preserve" overflow="hidden"><g transform="translate(-1138 -406)"><path d="M7.44141 1.23047C9.31563 1.31641 10.5562 2.20859 12.3047 2.57812 13.4844 2.82734 15.3641 2.97891 16.7578 2.75391 17.1289 2.71484 17.5 2.67578 17.8711 2.63672 20.5664 4.12109 23.2617 5.60547 25.957 7.08984 26.8359 8.41797 27.7148 9.74609 28.5938 11.0742 27.9297 11.4844 27.2656 11.8945 26.6016 12.3047 24.7852 11.7383 22.9688 11.1719 21.1523 10.6055 20.7031 12.0117 20.2539 13.418 19.8047 14.8242L21.4453 17.4023C20.7219 17.4172 17.382 17.5297 17.168 17.2266 16.3672 15.0391 15.5664 12.8516 14.7656 10.6641 13.1625 11.4289 11.4555 11.8328 9.02344 11.8359 8.22266 12.7344 7.42188 13.6328 6.62109 14.5312 7.05078 15.4883 7.48047 16.4453 7.91016 17.4023L3.98438 17.4023C3.33984 16.2695 2.69531 15.1367 2.05078 14.0039L3.22266 11.4258C2.92969 10.2344 2.63672 9.04297 2.34375 7.85156 1.775 4.63359 4.04609 2.40703 5.97656 1.58203 6.46484 1.46484 6.95312 1.34766 7.44141 1.23047Z" fill="#6D808F" fill-rule="evenodd" transform="matrix(1 0 0 1.03333 1138 406)"/><path d="M0 19.1602C9.99922 19.1797 20.0008 19.1992 30 19.2188L29.8828 19.2188C27.3828 20.2539 24.8828 21.2891 22.3828 22.3242 21.3281 24.4727 20.2734 26.6211 19.2188 28.7695L7.32422 28.7695C7.03203 27.8633 5.64141 25.9805 5.74219 25.1953 7.44141 24.6289 9.14062 24.0625 10.8398 23.4961 12.3047 24.1602 13.7695 24.8242 15.2344 25.4883 15.4492 24.9609 15.6641 24.4336 15.8789 23.9062 14.2383 23.1641 12.5977 22.4219 10.957 21.6797 8.78906 22.4219 6.62109 23.1641 4.45312 23.9062 2.96875 23.4961 1.48438 23.0859 0 22.6758L0 19.1602Z" fill="#6D808F" fill-rule="evenodd" transform="matrix(1 0 0 1.03333 1138 406)"/></g></svg>