<svg width="30" height="30" xmlns="http://www.w3.org/2000/svg" xmlns:xlink="http://www.w3.org/1999/xlink" xml:space="preserve" overflow="hidden"><g transform="translate(-1182 -490)"><path d="M1189.44 491.23C1191.32 491.316 1192.56 492.209 1194.3 492.578 1195.48 492.827 1197.36 492.979 1198.76 492.754 1199.13 492.715 1199.5 492.676 1199.87 492.637 1202.57 494.121 1205.26 495.605 1207.96 497.09 1208.84 498.418 1209.71 499.746 1210.59 501.074 1209.93 501.484 1209.27 501.895 1208.6 502.305 1206.79 501.738 1204.97 501.172 1203.15 500.605 1202.7 502.012 1202.25 503.418 1201.8 504.824L1203.45 507.402C1202.72 507.417 1199.38 507.53 1199.17 507.227 1198.37 505.039 1197.57 502.852 1196.77 500.664 1195.16 501.429 1193.46 501.833 1191.02 501.836 1190.22 502.734 1189.42 503.633 1188.62 504.531 1189.05 505.488 1189.48 506.445 1189.91 507.402L1185.98 507.402C1185.34 506.27 1184.7 505.137 1184.05 504.004L1185.22 501.426C1184.93 500.234 1184.64 499.043 1184.34 497.852 1183.78 494.634 1186.05 492.407 1187.98 491.582 1188.46 491.465 1188.95 491.348 1189.44 491.23Z" fill="#E4EBF0" fill-rule="evenodd"/><path d="M1182 509.16C1192 509.18 1202 509.199 1212 509.219L1211.88 509.219C1209.38 510.254 1206.88 511.289 1204.38 512.324 1203.33 514.473 1202.27 516.621 1201.22 518.77L1189.32 518.77C1189.03 517.863 1187.64 515.98 1187.74 515.195 1189.44 514.629 1191.14 514.062 1192.84 513.496 1194.3 514.16 1195.77 514.824 1197.23 515.488 1197.45 514.961 1197.66 514.434 1197.88 513.906 1196.24 513.164 1194.6 512.422 1192.96 511.68 1190.79 512.422 1188.62 513.164 1186.45 513.906 1184.97 513.496 1183.48 513.086 1182 512.676L1182 509.16Z" fill="#E4EBF0" fill-rule="evenodd"/></g></svg>